<svg version="1.1" xmlns="http://www.w3.org/2000/svg" xmlns:xlink="http://www.w3.org/1999/xlink" width="244.74475" height="244.74475" viewBox="0,0,244.74475,244.74475"><defs><linearGradient x1="287.04998" y1="153.74549" x2="222.64363" y2="172.06798" gradientUnits="userSpaceOnUse" id="color-1"><stop offset="0" stop-color="#33a7fa"/><stop offset="1" stop-color="#98f08a"/></linearGradient><linearGradient x1="172.93064" y1="180.00002" x2="307.0693" y2="180.00002" gradientUnits="userSpaceOnUse" id="color-2"><stop offset="0" stop-color="#28d8ff"/><stop offset="1" stop-color="#7a24f9"/></linearGradient><linearGradient x1="237.87068" y1="139.74785" x2="237.87068" y2="246.92339" gradientUnits="userSpaceOnUse" id="color-3"><stop offset="0" stop-color="#98f088"/><stop offset="1" stop-color="#fdb610"/></linearGradient><linearGradient x1="204.15195" y1="233.341" x2="291.50761" y2="207.80054" gradientUnits="userSpaceOnUse" id="color-4"><stop offset="0" stop-color="#fe8f25"/><stop offset="1" stop-color="#f54f5b"/></linearGradient></defs><g transform="translate(-117.62762,-57.62762)"><g data-paper-data="{&quot;isPaintingLayer&quot;:true}" fill-rule="nonzero" stroke="none" stroke-linecap="butt" stroke-linejoin="miter" stroke-miterlimit="10" stroke-dasharray="" stroke-dashoffset="0" style="mix-blend-mode: normal"><path d="M117.62763,180c0,-67.58439 54.78798,-122.37237 122.37237,-122.37237c67.58439,0 122.37238,54.78798 122.37238,122.37237c0,67.5844 -54.78798,122.37238 -122.37238,122.37238c-67.58439,0 -122.37237,-54.78798 -122.37237,-122.37238z" fill="#ffffff" stroke-width="0"/><path d="M293.37201,140.49319l3.09867,16.19333c-2.324,7.31466 -8.348,13.42533 -16.94,15.10267l-0.10134,0.02934l-55.96667,10.71466c-0.344,-1.78 -0.50133,-3.55733 -0.50133,-5.308c0,-13.23734 9.36533,-25.04266 22.848,-27.624l16.768,-3.21333z" fill="url(#color-1)" stroke-width="1"/><path d="M185.1467,221.00268c-32.62133,-53.36533 4.94934,-108.67466 55.456,-108.67466c33.03334,0 60.52933,23.65333 66.46666,54.94933l-27.64,5.29333c-4.96934,-26.19333 -35.77733,-43.20533 -64.89733,-23.60266c-1.92,1.292 -3.592,2.94799 -4.88933,4.86533c-21.53466,31.824 0.76,65.69867 30.96,65.69867c8.55334,0 16.47334,-2.716 22.94,-7.33066c10.93334,-7.80133 25.072,-9.49466 37.212,-3.74667l1.03733,0.49067c-16.1,33.98933 -59.70933,52.42 -102.09733,26.564c-5.92133,-3.61334 -10.92934,-8.588 -14.548,-14.50666" fill="url(#color-2)" stroke-width="1"/><path d="M173.94935,191.08252c7.244,-29.276 33.53466,-51.02133 64.976,-51.33466c-7.86133,0.328 -16.19467,2.94 -24.39867,8.476c-1.92266,1.29066 -3.58533,2.94 -4.876,4.848c-21.544,31.828 0.74534,65.708 30.952,65.708c8.54933,0 16.46666,-2.71067 22.936,-7.33067c10.944,-7.80266 25.072,-9.49466 37.22,-3.744l1.03333,0.488c-16.108,33.99467 -59.712,52.42533 -102.11066,26.564c-5.908,-3.616 -10.91467,-8.592 -14.52933,-14.5c-5.98134,-9.78267 -9.596,-19.62266 -11.20266,-29.17466" fill="url(#color-3)" stroke-width="1"/><path d="M263.53866,212.19958c6.55867,-4.676 14.26,-7.15733 21.99467,-7.15733c5.17066,0 10.35734,1.10933 15.22534,3.41333l1.03333,0.488c-16.108,33.99467 -59.712,52.42533 -102.11066,26.564c-5.908,-3.616 -10.91467,-8.592 -14.52933,-14.5c-1.752,-2.86533 -3.276,-5.73333 -4.63067,-8.59866c5.95734,4.74 12.94933,8.85733 21.028,12.13066c6.42133,2.6 13.40533,3.624 20.30533,3.016c15.032,-1.34667 27.704,-6.06 37.88,-12.98666c1.31066,-0.72666 2.59067,-1.50267 3.804,-2.36934" fill="url(#color-4)" stroke-width="1"/></g></g></svg>